<svg xmlns="http://www.w3.org/2000/svg" viewBox="0 0 157 165"><defs><style>.cls-1{fill:#3e413a;}.cls-2{fill:none;stroke:#fff;stroke-miterlimit:10;stroke-width:4px;}</style></defs><g id="Knob_Bed" data-name="Knob Bed"><path d="M78.5,10A76.5,76.5,0,1,1,2,86.5,76.59,76.59,0,0,1,78.5,10m0-2A78.5,78.5,0,1,0,157,86.5,78.51,78.51,0,0,0,78.5,8Z"/><circle cx="78.5" cy="86.5" r="69"/></g><g id="Layer_1" data-name="Layer 1"><path class="cls-1" d="M135.44,68,65.09,27.36A21.38,21.38,0,0,0,33,45.88V127.1a21.38,21.38,0,0,0,32.07,18.52L135.44,105A21.39,21.39,0,0,0,135.44,68Z"/><line class="cls-2" x1="61.5" y1="116.5" x2="49" y2="138"/></g></svg>